<svg width="26" height="27" viewBox="0 0 26 27" fill="none" xmlns="http://www.w3.org/2000/svg">
<path d="M8.125 12.1424C9.32162 12.1424 10.2917 11.1723 10.2917 9.9757C10.2917 8.77908 9.32162 7.80903 8.125 7.80903H3.25V12.1424H8.125ZM9.20833 14.309H3.25V18.6424H9.20833C10.405 18.6424 11.375 17.6723 11.375 16.4757C11.375 15.279 10.405 14.309 9.20833 14.309ZM11.4435 12.7626C12.7009 13.521 13.5417 14.9002 13.5417 16.4757C13.5417 18.8689 11.6015 20.809 9.20833 20.809H1.08333V5.64236H8.125C10.5182 5.64236 12.4583 7.58246 12.4583 9.9757C12.4583 11.037 12.0768 12.0091 11.4435 12.7626ZM16.7917 6.7257H22.75V8.3507H16.7917V6.7257ZM24.9167 15.934H16.7917V16.2049C16.7917 17.8502 18.1255 19.184 19.7708 19.184C20.9286 19.184 21.9321 18.5236 22.4251 17.559H24.7366C24.1422 19.744 22.1441 21.3507 19.7708 21.3507C16.9288 21.3507 14.625 19.0469 14.625 16.2049V14.5799C14.625 11.7378 16.9288 9.43403 19.7708 9.43403C22.6128 9.43403 24.9167 11.7378 24.9167 14.5799V15.934ZM22.6379 13.7674C22.2842 12.5169 21.1345 11.6007 19.7708 11.6007C18.4071 11.6007 17.2575 12.5169 16.9038 13.7674H22.6379Z" fill="#242366"/>
</svg>
