<svg width="26" height="27" viewBox="0 0 26 27" fill="none" xmlns="http://www.w3.org/2000/svg">
<path d="M21.6544 12.7616C21.5615 10.9996 20.9422 9.3771 19.951 8.04842C19.6895 8.33344 19.3684 8.64298 18.9537 8.99159C17.9704 9.81816 16.7794 10.564 15.3654 11.1684C15.5456 11.5472 15.7115 11.9148 15.8574 12.2613L15.8587 12.2642C15.8873 12.3311 15.9119 12.3922 15.9598 12.5126C15.9661 12.5282 15.9719 12.5429 15.9775 12.5567C17.6173 12.3722 19.3457 12.4402 21.022 12.6672C21.2448 12.6974 21.4554 12.729 21.6544 12.7616ZM11.4881 4.69044C11.6765 4.95576 11.8736 5.24 12.112 5.59229C12.7756 6.57284 13.429 7.60743 14.0404 8.67036C14.1645 8.88604 14.2859 9.10133 14.4044 9.31608C15.7292 8.79479 16.8237 8.13708 17.7058 7.40263C18.0625 7.10555 18.3498 6.82645 18.5687 6.58456C17.0626 5.32037 15.1202 4.55903 13 4.55903C12.4843 4.55903 11.9791 4.60408 11.4881 4.69044ZM4.60705 11.0564C5.23407 11.0423 5.94173 11.0042 6.81745 10.9238C8.55859 10.7639 10.3365 10.4767 12.0845 10.0328C11.4529 8.93268 10.7671 7.83428 10.0691 6.78396C9.73352 6.27909 9.4072 5.80478 9.15941 5.45432C6.92836 6.55901 5.2411 8.59616 4.60705 11.0564ZM6.26563 18.6814C6.68537 18.0674 7.23733 17.3764 7.97114 16.6245C9.54632 15.0108 11.406 13.7541 13.5567 13.0603C13.5868 13.0514 13.6071 13.0454 13.624 13.0404C13.4453 12.6462 13.2776 12.2946 13.1087 11.9627C11.1197 12.5418 9.02449 12.9039 6.93636 13.0916C5.91846 13.183 5.00506 13.2236 4.33333 13.2305C4.33444 15.2962 5.05825 17.1929 6.26563 18.6814ZM16.2549 21.2603C16.1418 20.6731 15.9975 20.0188 15.8057 19.2642C15.458 17.8962 15.0224 16.4887 14.4874 15.0758C12.3188 15.8629 10.5904 17.0145 9.25502 18.3877C8.61146 19.0494 8.13848 19.6755 7.82862 20.181C9.27216 21.2561 11.0618 21.8924 13 21.8924C14.1512 21.8924 15.25 21.6679 16.2549 21.2603ZM18.2843 20.0955C19.9412 18.8192 21.1234 16.9567 21.5206 14.8185C21.1524 14.7277 20.6852 14.6346 20.1712 14.5632C19.0402 14.4062 17.8765 14.38 16.7276 14.5276C17.2177 15.9085 17.6196 17.27 17.9409 18.5731C18.0812 19.1422 18.1955 19.6561 18.2843 20.0955ZM13 24.059C7.01691 24.059 2.16667 19.2087 2.16667 13.2257C2.16667 7.24261 7.01691 2.39236 13 2.39236C18.983 2.39236 23.8333 7.24261 23.8333 13.2257C23.8333 19.2087 18.983 24.059 13 24.059Z" fill="#242366"/>
</svg>
