<svg width="26" height="27" viewBox="0 0 26 27" fill="none" xmlns="http://www.w3.org/2000/svg">
<path d="M13.0011 9.9757C11.2056 9.9757 9.75106 11.4307 9.75106 13.2257C9.75106 15.0211 11.2061 16.4757 13.0011 16.4757C14.7965 16.4757 16.2511 15.0207 16.2511 13.2257C16.2511 11.4303 14.7961 9.9757 13.0011 9.9757ZM13.0011 7.80903C15.9915 7.80903 18.4177 10.2326 18.4177 13.2257C18.4177 16.2162 15.9942 18.6424 13.0011 18.6424C10.0106 18.6424 7.58439 16.2188 7.58439 13.2257C7.58439 10.2352 10.0079 7.80903 13.0011 7.80903ZM20.0427 7.53728C20.0427 8.2849 19.4352 8.89147 18.6886 8.89147C17.941 8.89147 17.3344 8.28396 17.3344 7.53728C17.3344 6.79059 17.9418 6.18403 18.6886 6.18403C19.4342 6.18309 20.0427 6.79059 20.0427 7.53728ZM13.0011 4.55903C10.3204 4.55903 9.88344 4.56613 8.63662 4.62165C7.78716 4.66153 7.21774 4.77577 6.68867 4.98117C6.2185 5.16352 5.87934 5.38126 5.51798 5.74263C5.15522 6.10538 4.93787 6.44363 4.75626 6.91401C4.55039 7.44429 4.43617 8.01282 4.39701 8.86111C4.34095 10.0572 4.33439 10.4752 4.33439 13.2257C4.33439 15.9064 4.34149 16.3433 4.397 17.59C4.4369 18.4391 4.5513 19.0094 4.7562 19.5372C4.93902 20.008 5.15721 20.348 5.51683 20.7076C5.88101 21.0713 6.22027 21.2894 6.68619 21.4692C7.2217 21.6762 7.79077 21.7906 8.63646 21.8297C9.83252 21.8858 10.2505 21.8924 13.0011 21.8924C15.6818 21.8924 16.1187 21.8852 17.3654 21.8297C18.2127 21.79 18.7834 21.6753 19.3126 21.4705C19.7821 21.2882 20.1231 21.0693 20.483 20.7099C20.8472 20.3451 21.0649 20.0067 21.2449 19.5397C21.4514 19.0061 21.566 18.4363 21.6051 17.5903C21.6611 16.3942 21.6677 15.9762 21.6677 13.2257C21.6677 10.545 21.6606 10.1081 21.6051 8.86135C21.5653 8.01385 21.4505 7.44231 21.2456 6.91331C21.0637 6.44444 20.8452 6.10424 20.4841 5.74263C20.1207 5.37928 19.7834 5.16237 19.3127 4.9809C18.7828 4.7752 18.2134 4.66082 17.3656 4.62166C16.1696 4.56559 15.7516 4.55903 13.0011 4.55903ZM13.0011 2.39236C15.9441 2.39236 16.3115 2.4032 17.4671 2.45736C18.6199 2.51063 19.4063 2.69299 20.0969 2.96111C20.8109 3.23647 21.414 3.60841 22.0161 4.21056C22.6174 4.81272 22.9894 5.41757 23.2657 6.12986C23.5328 6.81959 23.7152 7.60681 23.7694 8.75966C23.8209 9.91522 23.8344 10.2826 23.8344 13.2257C23.8344 16.1688 23.8236 16.5361 23.7694 17.6917C23.7161 18.8446 23.5328 19.6309 23.2657 20.3215C22.9903 21.0357 22.6174 21.6386 22.0161 22.2409C21.414 22.8421 20.8082 23.214 20.0969 23.4903C19.4063 23.7575 18.6199 23.9399 17.4671 23.994C16.3115 24.0455 15.9441 24.059 13.0011 24.059C10.058 24.059 9.69057 24.0482 8.53502 23.994C7.38217 23.9407 6.59675 23.7575 5.90523 23.4903C5.19202 23.2149 4.58806 22.8421 3.98592 22.2409C3.38377 21.6386 3.01272 21.033 2.73647 20.3215C2.46835 19.6309 2.28689 18.8446 2.23272 17.6917C2.18127 16.5361 2.16772 16.1688 2.16772 13.2257C2.16772 10.2826 2.17856 9.91522 2.23272 8.75966C2.28598 7.60591 2.46835 6.82049 2.73647 6.12986C3.01181 5.41667 3.38377 4.81272 3.98592 4.21056C4.58806 3.60841 5.19293 3.23736 5.90523 2.96111C6.59585 2.69299 7.38127 2.51153 8.53502 2.45736C9.69057 2.40591 10.058 2.39236 13.0011 2.39236Z" fill="#242366"/>
</svg>
