<svg width="37" height="53" viewBox="0 0 37 53" fill="none" xmlns="http://www.w3.org/2000/svg">
<g clip-path="url(#clip0_0_9)">
<path d="M36.4 33.9129C36.4 41.1825 32.1256 47.4433 25.948 50.3553C23.5768 51.4889 20.904 52.1129 18.1064 52.1129C15.3088 52.1129 12.636 51.4889 10.2648 50.3553C4.8256 47.7969 0.8736 42.6489 0 36.5129H9.3392C9.5576 37.2513 9.8696 37.9585 10.2648 38.6033C10.3064 38.6761 10.348 38.7489 10.4 38.8113C11.1488 39.9969 12.1784 40.9953 13.3952 41.7129C14.7576 42.5345 16.38 43.0129 18.1064 43.0129C19.8328 43.0129 21.4344 42.5449 22.8072 41.7129C24.0968 40.9537 25.168 39.8825 25.948 38.6033C25.9688 38.5721 25.9896 38.5409 26 38.5097C26.7904 37.1681 27.248 35.5873 27.248 33.9129C27.248 32.2385 26.78 30.6057 25.948 29.2329C24.3568 26.5913 21.4448 24.8129 18.1064 24.8129C17.2432 24.8129 16.4008 24.9377 15.6 25.1665C13.3432 25.8009 11.44 27.2777 10.2648 29.2329C9.8696 29.8777 9.5576 30.5745 9.3392 31.3129H0V0.112854H26V10.5129H10.4V17.4081C12.74 16.3161 15.3608 15.7129 18.1064 15.7129C20.852 15.7129 23.5768 16.3369 25.948 17.4705C25.9688 17.4809 25.9792 17.4913 26 17.5017C32.1464 20.4137 36.4 26.6745 36.4 33.9129Z" fill="#D81F27"/>
<path opacity="0.9" d="M36.4 0.112854V52.1129H0V36.5129H9.3392C9.5576 37.2513 9.8696 37.9585 10.2648 38.6033C10.3064 38.6761 10.348 38.7489 10.4 38.8113V41.7129H26V31.3129H15.6V20.9129H26V10.5129H10.4V15.7129H0V0.112854H36.4Z" fill="#242366"/>
<path d="M36.4 0.112854H26.0208V10.5129H36.4V0.112854Z" fill="#D81F27"/>
</g>
<defs>
<clipPath id="clip0_0_9">
<rect width="36.4" height="52" fill="white" transform="translate(0 0.112854)"/>
</clipPath>
</defs>
</svg>
