<svg width="26" height="27" viewBox="0 0 26 27" fill="none" xmlns="http://www.w3.org/2000/svg">
<path d="M4.33439 3.47571H21.6677C22.2661 3.47571 22.7511 3.96074 22.7511 4.55904V21.8924C22.7511 22.4907 22.2661 22.9757 21.6677 22.9757H4.33439C3.73608 22.9757 3.25106 22.4907 3.25106 21.8924V4.55904C3.25106 3.96074 3.73608 3.47571 4.33439 3.47571ZM5.41773 5.64237V20.809H20.5844V5.64237H5.41773ZM8.12606 9.97571C7.22859 9.97571 6.50106 9.24817 6.50106 8.35071C6.50106 7.45324 7.22859 6.72571 8.12606 6.72571C9.02352 6.72571 9.75106 7.45324 9.75106 8.35071C9.75106 9.24817 9.02352 9.97571 8.12606 9.97571ZM7.04273 11.059H9.20939V19.184H7.04273V11.059ZM13.0011 11.5243C13.6342 10.9132 14.372 10.5174 15.1677 10.5174C17.4113 10.5174 18.9594 12.3362 18.9594 14.5799V19.184H16.7927V14.5799C16.7927 13.5328 15.944 12.684 14.8969 12.684C13.8499 12.684 13.0011 13.5328 13.0011 14.5799V19.184H10.8344V11.059H13.0011V11.5243Z" fill="#242366"/>
</svg>
